<?xml version="1.0" encoding="utf-8"?>
<!-- Generator: Adobe Illustrator 16.0.0, SVG Export Plug-In . SVG Version: 6.00 Build 0)  -->
<!DOCTYPE svg PUBLIC "-//W3C//DTD SVG 1.1//EN" "http://www.w3.org/Graphics/SVG/1.1/DTD/svg11.dtd">
<svg version="1.1" id="Layer_1" xmlns="http://www.w3.org/2000/svg" xmlns:xlink="http://www.w3.org/1999/xlink" x="0px" y="0px"
	 width="208px" height="208px" viewBox="0 0 208 208" enable-background="new 0 0 208 208" xml:space="preserve">
<g id="surface1">
	<path fill="#FFFFFF" d="M80,1.5C36.625,1.5,1.5,36.625,1.5,80s35.125,78.5,78.5,78.5c18.313,0,35.156-6.469,48.5-17l7,7
		c-2.938,5.531-1.906,12.594,2.75,17.25l36.75,37c5.719,5.719,15.031,5.719,20.75,0l7-7c5.719-5.719,5.719-15.031,0-20.75l-37-36.75
		c-4.688-4.688-11.719-5.5-17.25-2.5l-7-7c10.594-13.375,17-30.344,17-48.75C158.5,36.625,123.375,1.5,80,1.5z M80,16
		c35.344,0,64,28.656,64,64s-28.656,64-64,64s-64-28.656-64-64S44.656,16,80,16z M39.5,59.75c-4.125,6.688-6.5,14.563-6.5,23
		c0,24.219,19.531,43.75,43.75,43.75c9.344,0,18.125-3.031,25.25-8c-1.906,0.219-4.031,0.25-6,0.25c-31.313,0-56.5-25.188-56.5-56.5
		C39.5,61.406,39.469,60.594,39.5,59.75z"/>
</g>
</svg>
